name ./resultDataOpenSim/trcMotMarkerGrf/sub10/grf-13-04.mot
datacolumns 19
datarows 12
range 1.43600000 1.48000000
endheader

                time	     ground_force_vx	     ground_force_vy	     ground_force_vz	     ground_force_px	     ground_force_py	     ground_force_pz	   l_ground_force_vx	   l_ground_force_vy	   l_ground_force_vz	   l_ground_force_px	   l_ground_force_py	   l_ground_force_pz	     ground_torque_x	     ground_torque_y	     ground_torque_z	   l_ground_torque_x	   l_ground_torque_y	   l_ground_torque_z	
          1.43600000	          0.42435170	        391.51388252	        -21.09281776	          0.88627301	          0.00000000	         -0.00966218	          0.00000000	          0.00000000	          0.00000000	          0.00000000	          0.00000000	          0.00000000	          0.00000000	          1.73478956	          0.00000000	          0.00000000	          0.00000000	          0.00000000	
          1.44000000	          3.46108454	        387.80664599	        -22.02686945	          0.88581111	          0.00000000	         -0.00985146	          0.00000000	          0.00000000	          0.00000000	          0.00000000	          0.00000000	          0.00000000	          0.00000000	          1.81071279	          0.00000000	          0.00000000	          0.00000000	          0.00000000	
          1.44400000	          6.68338890	        384.88940090	        -21.29044978	          0.88531663	          0.00000000	         -0.01012173	          0.00000000	          0.00000000	          0.00000000	          0.00000000	          0.00000000	          0.00000000	          0.00000000	          1.82883044	          0.00000000	          0.00000000	          0.00000000	          0.00000000	
          1.44800000	          9.65670692	        382.75612059	        -19.02543150	          0.88486105	          0.00000000	         -0.01048278	          0.00000000	          0.00000000	          0.00000000	          0.00000000	          0.00000000	          0.00000000	          0.00000000	          1.79081729	          0.00000000	          0.00000000	          0.00000000	          0.00000000	
          1.45200000	         12.01890379	        381.43280517	        -15.67141274	          0.88452109	          0.00000000	         -0.01092147	          0.00000000	          0.00000000	          0.00000000	          0.00000000	          0.00000000	          0.00000000	          0.00000000	          1.70860449	          0.00000000	          0.00000000	          0.00000000	          0.00000000	
          1.45600000	         13.59417269	        380.99544617	        -11.87563797	          0.88435696	          0.00000000	         -0.01140012	          0.00000000	          0.00000000	          0.00000000	          0.00000000	          0.00000000	          0.00000000	          0.00000000	          1.60146935	          0.00000000	          0.00000000	          0.00000000	          0.00000000	
          1.46000000	         14.46894707	        381.53755179	         -8.36538749	          0.88436931	          0.00000000	         -0.01186561	          0.00000000	          0.00000000	          0.00000000	          0.00000000	          0.00000000	          0.00000000	          0.00000000	          1.49240554	          0.00000000	          0.00000000	          0.00000000	          0.00000000	
          1.46400000	         14.98567867	        383.11351817	         -5.80314033	          0.88447946	          0.00000000	         -0.01227164	          0.00000000	          0.00000000	          0.00000000	          0.00000000	          0.00000000	          0.00000000	          0.00000000	          1.40463907	          0.00000000	          0.00000000	          0.00000000	          0.00000000	
          1.46800000	         15.64687204	        385.70954305	         -4.65908286	          0.88456023	          0.00000000	         -0.01259517	          0.00000000	          0.00000000	          0.00000000	          0.00000000	          0.00000000	          0.00000000	          0.00000000	          1.35843941	          0.00000000	          0.00000000	          0.00000000	          0.00000000	
          1.47200000	         16.96778783	        389.26186316	         -5.12956531	          0.88449319	          0.00000000	         -0.01283801	          0.00000000	          0.00000000	          0.00000000	          0.00000000	          0.00000000	          0.00000000	          0.00000000	          1.36801770	          0.00000000	          0.00000000	          0.00000000	          0.00000000	
          1.47600000	         19.33527974	        393.70079645	         -7.11176048	          0.88420780	          0.00000000	         -0.01301944	          0.00000000	          0.00000000	          0.00000000	          0.00000000	          0.00000000	          0.00000000	          0.00000000	          1.43862942	          0.00000000	          0.00000000	          0.00000000	          0.00000000	
          1.48000000	         22.91321074	        398.98677021	        -10.23605138	          0.88369405	          0.00000000	         -0.01316068	          0.00000000	          0.00000000	          0.00000000	          0.00000000	          0.00000000	          0.00000000	          0.00000000	          1.56469288	          0.00000000	          0.00000000	          0.00000000	          0.00000000	
